<svg width="72" height="72" viewBox="0 0 72 72" fill="none" xmlns="http://www.w3.org/2000/svg">
<path d="M68.0683 22.1765C66.3734 19.7297 63.8375 17.5315 60.4608 15.5818C57.0838 13.632 53.2734 12.1666 49.0363 11.1853C44.7927 10.2105 40.4791 9.71347 36.1018 9.70709C31.718 9.70072 27.4172 10.1786 23.18 11.1407C18.9493 12.1028 15.1581 13.5556 11.8002 15.4926C8.44235 17.4296 5.93184 19.6214 4.26246 22.0618C2.59308 24.5085 1.76475 26.9935 1.77749 29.523C1.79023 31.6575 2.40191 33.7602 3.61253 35.8373C3.83554 36.2196 4.07768 36.6083 4.3453 36.9906C5.42848 38.5581 6.86211 40.0235 8.63344 41.3807C9.63379 42.1517 10.7362 42.8844 11.9531 43.5853C15.3301 45.535 19.1403 47.0005 23.3839 47.9818C27.6274 48.9566 31.9347 49.4536 36.3185 49.46C40.6958 49.4664 45.0031 48.9885 49.2339 48.0264C53.4647 47.0643 57.2622 45.6115 60.6137 43.6745C61.34 43.254 62.0346 42.8207 62.6845 42.3747C65.0226 40.769 66.8449 39.0168 68.1511 37.1053C68.3869 36.7612 68.6035 36.4172 68.801 36.0731C70.0244 33.9768 70.6361 31.855 70.6361 29.7014V29.6441C70.6233 27.1145 69.7695 24.6296 68.0683 22.1765ZM63.7801 30.5297C63.621 32.3138 62.9393 34.0405 61.7287 35.7035C60.3206 37.6469 58.3198 39.3609 55.7329 40.8582C54.7835 41.4062 53.8023 41.9096 52.7828 42.3556C48.0104 44.4837 42.5117 45.5414 36.2929 45.5287C28.7488 45.5159 22.2561 43.9358 16.8019 40.7881C14.2023 39.2844 12.2144 37.6405 10.8508 35.8628C9.53191 34.1489 8.79273 32.3074 8.62706 30.3386C8.60795 30.071 8.59521 29.8034 8.59521 29.5358C8.56972 25.1775 11.2649 21.4373 16.6809 18.3089C22.0968 15.1804 28.5768 13.6257 36.1209 13.6384C43.6649 13.6512 50.1578 15.2313 55.6119 18.3789L46.7998 23.4635L41.2819 26.6494L36.2101 29.5804L52.6363 29.6122L62.5379 29.6313H63.8247C63.8247 29.9308 63.812 30.2303 63.7801 30.5297Z" stroke="#E5E7EB" stroke-width="1.27434" stroke-linecap="round" stroke-linejoin="round"/>
<path d="M55.6123 18.3774L46.8002 23.462L41.2823 26.6478C39.6193 26.4758 37.899 26.3802 36.1213 26.3802C28.5772 26.3675 22.0972 27.9222 16.6813 31.0507C14.139 32.5225 12.1957 34.1218 10.8513 35.8613C9.53234 34.1473 8.7931 32.3059 8.62743 30.3371C8.60832 30.0694 8.59564 29.8018 8.59564 29.5342C8.57015 25.176 11.2654 21.4358 16.6813 18.3073C22.0972 15.1788 28.5772 13.6241 36.1213 13.6369C43.6654 13.6496 50.1582 15.2298 55.6123 18.3774Z" stroke="#E5E7EB" stroke-width="1.27434" stroke-linecap="round" stroke-linejoin="round"/>
<path d="M63.8257 29.6291C63.8257 29.9286 63.813 30.228 63.7811 30.5275C63.6219 32.3116 62.9401 34.0383 61.7295 35.7013C60.3214 37.6447 58.3207 39.3587 55.7338 40.856C54.7844 41.404 53.8032 41.9073 52.7837 42.3533L36.2109 42.3215V29.5781L52.6371 29.61L62.5387 29.6291H63.8257Z" stroke="#E5E7EB" stroke-width="1.27434" stroke-linecap="round" stroke-linejoin="round"/>
<path d="M70.6361 29.7018V42.3879C70.6488 44.9174 69.8205 47.4024 68.1511 49.8491C66.4817 52.2895 63.9713 54.4813 60.6135 56.4183C57.262 58.3553 53.4645 59.808 49.2337 60.7702C45.0029 61.7323 40.6956 62.2102 36.3183 62.2038C31.9345 62.1974 27.6273 61.7004 23.3838 60.7256C19.1402 59.7443 15.3299 58.2788 11.953 56.3291C8.57597 54.3794 6.04002 52.1811 4.34515 49.7344C2.65028 47.2813 1.79009 44.7964 1.77734 42.2668V29.5234C1.79009 31.658 2.40177 33.7606 3.61239 35.8378C3.8354 36.2201 4.07754 36.6087 4.34515 36.991C5.42834 38.5585 6.86192 40.024 8.63325 41.3811C9.6336 42.1521 10.736 42.8849 11.953 43.5857C15.3299 45.5355 19.1402 47.001 23.3838 47.9822C27.6273 48.9571 31.9345 49.4541 36.3183 49.4604C40.6956 49.4668 45.0029 48.9889 49.2337 48.0268C53.4645 47.0647 57.262 45.6119 60.6135 43.6749C61.3399 43.2544 62.0344 42.8211 62.6843 42.3751C65.0226 40.7695 66.8449 39.0172 68.1511 37.1057C68.3869 36.7617 68.6035 36.4176 68.801 36.0735C70.0244 33.9772 70.6361 31.8555 70.6361 29.7018Z" stroke="#E5E7EB" stroke-width="1.27434" stroke-linecap="round" stroke-linejoin="round"/>
</svg>
