<svg width="72" height="72" viewBox="0 0 72 72" fill="none" xmlns="http://www.w3.org/2000/svg">
<path d="M48.5273 40.166V40.4177C48.5273 40.4177 48.5449 40.3943 48.5566 40.3826C48.5332 40.3124 48.5273 40.2421 48.5273 40.166Z" stroke="white" stroke-width="1.17073" stroke-linecap="round" stroke-linejoin="round"/>
<path d="M25.7665 13.905V13.9167C25.7665 14.5079 25.3743 15.0289 24.5958 15.4796L16.4182 20.1976L12.4904 22.4689L8.29919 24.8864C7.5148 25.343 6.60748 25.5654 5.57723 25.5654C4.54699 25.5654 3.63965 25.3313 2.84941 24.8806C2.05916 24.424 1.66113 23.8971 1.65527 23.3001C1.65527 22.7089 2.04747 22.182 2.83186 21.7313L12.4904 16.1528L16.4123 13.8874L13.6787 12.3128C12.8885 11.8562 12.4904 11.3294 12.4904 10.7381C12.4846 10.1411 12.8767 9.6201 13.6611 9.16351C14.4455 8.71278 15.3528 8.48449 16.3831 8.49034C17.4133 8.49034 18.3207 8.71864 19.1109 9.17522L24.5782 12.3303C25.3685 12.7869 25.7665 13.3137 25.7665 13.905Z" stroke="white" stroke-width="1.17073" stroke-linecap="round" stroke-linejoin="round"/>
<path d="M48.9127 27.5834V27.5951C48.9127 28.3912 48.3975 29.0878 47.379 29.679L41.9468 32.8107C41.5605 33.0332 41.1507 33.2146 40.7175 33.3551C39.9858 33.5834 39.1897 33.7005 38.3175 33.7005C36.9244 33.6946 35.7127 33.3961 34.6824 32.799L32.0775 31.2946L30.7136 30.5044L27.3946 28.5903L23.7712 30.68L27.3946 32.7698L31.9722 35.4156C32.7624 35.8722 33.1546 36.399 33.1605 36.9902C33.1605 37.5873 32.7741 38.1083 31.9897 38.5649C31.9312 38.6 31.8668 38.6351 31.8083 38.6644C31.0649 39.0507 30.2219 39.2439 29.2678 39.2381C28.5888 39.2381 27.9683 39.1385 27.3946 38.9395C27.0961 38.84 26.8093 38.7112 26.54 38.5532L23.1566 36.5981L15.7224 32.3073L15.6053 32.2429C14.8151 31.7863 14.4171 31.2595 14.4171 30.6683C14.4112 30.0712 14.8034 29.5503 15.5878 29.0937L21.9273 25.4351C22.8814 24.8849 24.0053 24.5863 25.2814 24.5571C25.3693 24.5512 25.4629 24.5512 25.5507 24.5512C25.6268 24.5512 25.6971 24.5512 25.7673 24.5571C27.0727 24.5863 28.2141 24.879 29.1917 25.4468L30.7136 26.3249L36.4795 29.6556L40.1029 27.5659L31.9019 22.8303C31.1117 22.3737 30.7136 21.8527 30.7136 21.2556C30.7078 20.6644 31.1 20.1376 31.8844 19.6868C32.6688 19.2303 33.5761 19.0078 34.6063 19.0078C35.6366 19.0078 36.5439 19.2361 37.3341 19.6927L47.3556 25.482C48.3917 26.079 48.9068 26.7756 48.9127 27.5834Z" stroke="white" stroke-width="1.17073" stroke-linecap="round" stroke-linejoin="round"/>
<path d="M70.7827 40.2012V51.9085C70.7827 52.7163 70.2734 53.4129 69.2491 54.0041L54.7613 62.369C53.7369 62.9602 52.5252 63.2587 51.132 63.2529C49.7388 63.2529 48.5271 62.9543 47.4969 62.3573L37.4695 56.568C36.6852 56.1173 36.2871 55.5904 36.2812 54.9934V43.2861C36.2871 43.8831 36.6852 44.41 37.4695 44.8607L38.4061 45.4051L47.4969 50.65C47.8188 50.8373 48.1642 50.9953 48.5271 51.1241C48.6091 51.1534 48.691 51.1826 48.773 51.206C49.493 51.4343 50.2773 51.5456 51.132 51.5456C51.9983 51.5514 52.8003 51.4343 53.5261 51.206C53.9652 51.0656 54.3749 50.8841 54.7613 50.6617L57.2959 49.1982L62.7281 46.0607L69.2491 42.2968C70.2734 41.7056 70.7827 41.009 70.7827 40.2012Z" stroke="white" stroke-width="1.17073" stroke-linecap="round" stroke-linejoin="round"/>
<path d="M54.7264 44.3692L52.5839 45.6043L51.1029 46.4589L48.5273 44.9721V40.4179C48.5273 40.4179 48.5449 40.3945 48.5566 40.3828C48.621 40.7048 48.861 40.9857 49.2591 41.214L52.5839 43.134L53.9361 43.9126L54.7264 44.3692Z" stroke="white" stroke-width="1.17073" stroke-linecap="round" stroke-linejoin="round"/>
<path d="M70.7827 40.2045C70.7827 41.0123 70.2734 41.7089 69.2491 42.3001L62.7281 46.064L57.2959 49.2016L54.7613 50.665C54.3749 50.8874 53.9652 51.0689 53.5261 51.2094C52.8003 51.4377 51.9983 51.5548 51.132 51.5489C50.2773 51.5489 49.493 51.4377 48.773 51.2094C48.691 51.186 48.6091 51.1567 48.5271 51.1274C48.1642 50.9987 47.8188 50.8406 47.4969 50.6533L38.4061 45.4084L37.4695 44.864C36.6852 44.4133 36.2871 43.8865 36.2812 43.2894C36.2812 42.6982 36.6676 42.1713 37.4578 41.7206C38.2422 41.2699 39.1495 41.0416 40.1739 41.0416C41.2042 41.0474 42.1173 41.2757 42.9076 41.7323L44.8452 42.8504L48.5271 44.9753L51.1027 46.4621L52.5837 45.6074L54.7261 44.3723L53.9359 43.9157L52.5837 43.1372L49.2588 41.2172C48.8608 40.9889 48.6208 40.7079 48.5564 40.386C48.533 40.3157 48.5271 40.2455 48.5271 40.1694C48.5271 39.8592 48.6559 39.5899 48.9134 39.3616C49.0071 39.2738 49.1183 39.1977 49.2471 39.1216C49.733 38.8406 50.3359 38.7001 51.0617 38.706C51.6471 38.706 52.1564 38.7996 52.5837 38.9811C52.6891 39.0221 52.7886 39.0748 52.8822 39.1274L58.3495 42.2826L61.973 40.1928L53.772 35.4572C52.9817 35.0006 52.5837 34.4738 52.5837 33.8826C52.5778 33.2855 52.97 32.7645 53.7544 32.3079C54.5388 31.8572 55.4461 31.6348 56.4764 31.6348C57.5066 31.6348 58.4139 31.8631 59.2042 32.3196L69.2256 38.1089C70.2559 38.7001 70.7769 39.4026 70.7827 40.2045Z" stroke="white" stroke-width="1.17073" stroke-linecap="round" stroke-linejoin="round"/>
<path d="M61.9712 40.1891L58.3479 42.2789L52.8806 39.1238C52.7869 39.0711 52.6874 39.0184 52.582 38.9774V33.8789C52.582 34.4701 52.98 34.997 53.7703 35.4535L61.9712 40.1891Z" stroke="white" stroke-width="1.17073" stroke-linecap="round" stroke-linejoin="round"/>
<path d="M27.3949 28.5879V32.7674L23.7715 30.6776L27.3949 28.5879Z" stroke="white" stroke-width="1.17073" stroke-linecap="round" stroke-linejoin="round"/>
<path d="M48.9136 27.5918V39.3576C48.656 39.5859 48.5272 39.8552 48.5272 40.1655V40.4172C48.2755 40.7625 47.8892 41.0903 47.3799 41.383L44.8453 42.8464L42.9077 41.7284C42.1175 41.2718 41.2043 41.0435 40.174 41.0377C39.1497 41.0377 38.2423 41.2659 37.4579 41.7167C36.6677 42.1674 36.2814 42.6942 36.2814 43.2855V45.1528C35.7077 45.0064 35.175 44.7898 34.6833 44.503L33.1614 43.625V36.9869C33.1555 36.3957 32.7633 35.8689 31.9731 35.4123L27.3955 32.7664V28.5869L30.7145 30.5011L32.0784 31.2913L34.6833 32.7957C35.7136 33.3928 36.9253 33.6913 38.3184 33.6972C39.1906 33.6972 39.9867 33.5801 40.7184 33.3518C41.1516 33.2113 41.5614 33.0298 41.9477 32.8074L47.3799 29.6757C48.3984 29.0845 48.9136 28.3879 48.9136 27.5918Z" stroke="white" stroke-width="1.17073" stroke-linecap="round" stroke-linejoin="round"/>
<path d="M33.1604 36.9899V48.6972C33.1604 49.2943 32.7741 49.8153 31.9897 50.2719C31.2053 50.7226 30.298 50.9509 29.2677 50.945C28.2375 50.945 27.3302 50.7167 26.5399 50.2602L15.6053 43.9499C14.815 43.4933 14.417 42.9665 14.417 42.3753V30.668C14.417 31.2592 14.815 31.786 15.6053 32.2426L15.7224 32.307L23.1565 36.5977L26.5399 38.5528C26.8092 38.7109 27.096 38.8397 27.3946 38.9392C27.9682 39.1382 28.5887 39.2377 29.2677 39.2377C30.2219 39.2436 31.0648 39.0504 31.8082 38.6641C31.8667 38.6348 31.9311 38.5997 31.9897 38.5646C32.7741 38.108 33.1604 37.587 33.1604 36.9899Z" stroke="white" stroke-width="1.17073" stroke-linecap="round" stroke-linejoin="round"/>
<path d="M40.1042 27.5622L36.4808 29.652L30.7148 26.3212V21.252C30.7148 21.849 31.1129 22.37 31.9031 22.8266L40.1042 27.5622Z" stroke="white" stroke-width="1.17073" stroke-linecap="round" stroke-linejoin="round"/>
<path d="M25.7665 13.916V24.558C25.6963 24.5521 25.626 24.5521 25.5499 24.5521C25.4621 24.5521 25.3685 24.5521 25.2807 24.558C24.0046 24.5872 22.8807 24.8858 21.9265 25.436L15.587 29.0946C14.8026 29.5511 14.4104 30.0721 14.4163 30.6692V33.0633L8.29919 36.5931C7.5148 37.0497 6.60748 37.2721 5.57723 37.2721C4.54699 37.2721 3.63965 37.038 2.84941 36.5872C2.05916 36.1306 1.66113 35.6038 1.65527 35.0067V23.2994C1.66113 23.8965 2.05916 24.4233 2.84941 24.8799C3.63965 25.3306 4.54699 25.5648 5.57723 25.5648C6.60748 25.5648 7.5148 25.3424 8.29919 24.8858L12.4904 22.4682L16.4182 20.197L24.5958 15.4789C25.3743 15.0282 25.7665 14.5072 25.7665 13.916Z" stroke="white" stroke-width="1.17073" stroke-linecap="round" stroke-linejoin="round"/>
<path d="M16.4141 13.8836L12.4922 16.149V10.7344C12.4922 11.3256 12.8902 11.8524 13.6805 12.309L16.4141 13.8836Z" stroke="white" stroke-width="1.17073" stroke-linecap="round" stroke-linejoin="round"/>
</svg>
