<svg width="72" height="72" viewBox="0 0 72 72" fill="none" xmlns="http://www.w3.org/2000/svg">
<path d="M69.9367 30.4618C69.2893 29.6632 68.2305 29.1005 66.7723 28.7677L64.8665 28.32L61.4177 27.4971C61.2907 27.0555 61.1333 26.6138 60.9518 26.1781C60.7703 25.7486 60.5102 25.319 60.1834 24.9015L63.6322 22.2696C64.4308 21.6524 64.8423 20.9627 64.8665 20.1943V19.9099C64.7999 19.0326 64.2191 18.2763 63.1239 17.641L57.3942 14.3314C56.2991 13.7022 54.9861 13.3633 53.4735 13.3331C51.9487 13.2907 50.5814 13.5267 49.3713 14.041L44.8214 16.0316C44.1377 15.8622 43.4056 15.723 42.6372 15.6081C41.8628 15.487 41.0944 15.3902 40.3199 15.3237L38.1235 12.2319C37.5487 11.3909 36.5747 10.7798 35.1952 10.4047C33.8157 10.0235 32.3757 9.93879 30.8812 10.1506L23.046 11.3606C21.5515 11.5664 20.3958 12.0443 19.5911 12.7946C18.9256 13.4117 18.5928 14.0773 18.5928 14.7912C18.5928 14.9365 18.6049 15.0938 18.6352 15.245L19.4398 18.5123C19.1313 18.6454 18.847 18.7845 18.5928 18.9297L18.5565 18.9479L16.929 19.8918C16.6628 20.043 16.4086 20.2124 16.1666 20.4L10.5155 19.9341C8.97261 19.8373 7.55688 20.0188 6.26209 20.4847C4.96729 20.9566 4.14444 21.6222 3.78141 22.4813L1.67584 27.001C1.54879 27.3096 1.48828 27.6181 1.48828 27.9146C1.48828 28.4531 1.69402 28.9795 2.11755 29.4998C2.77099 30.2924 3.82981 30.8551 5.28796 31.1879L6.86108 31.557L8.89402 32.041L10.6426 32.4585C10.7636 32.9062 10.9209 33.3418 11.1024 33.7775C11.29 34.207 11.5441 34.6366 11.8708 35.0541L8.42209 37.686C7.53267 38.3818 7.12119 39.1684 7.18774 40.0518C7.2543 40.9291 7.83514 41.6793 8.93026 42.3146L14.6601 45.6242C15.7612 46.2534 17.0681 46.5923 18.5868 46.6286C20.1054 46.6649 21.4728 46.4289 22.689 45.9146L25.0547 44.88L25.5871 44.644L27.2328 43.924C27.9225 44.0934 28.6486 44.2326 29.423 44.3536C30.1914 44.4686 30.9659 44.5654 31.7282 44.6319L33.8157 47.6571C33.9367 47.8447 34.0819 48.0141 34.2513 48.1775C34.6083 48.5284 35.056 48.8309 35.6006 49.085C35.9454 49.2363 36.3266 49.3694 36.7441 49.4844C38.1236 49.8655 39.5575 49.9502 41.052 49.7385L48.9478 48.5647C50.4483 48.3529 51.6039 47.8749 52.4086 47.1247C53.0439 46.5439 53.3827 45.9025 53.4008 45.2188C53.4129 45.0373 53.3949 44.8558 53.3646 44.6743L52.5599 41.4131C52.9169 41.2921 53.2315 41.159 53.4977 41.0077L55.1313 40.0639C55.3975 39.9126 55.6516 39.7432 55.8936 39.5617L61.5448 40.0215C62.1014 40.0578 62.6399 40.0518 63.1602 40.0155C63.8681 39.967 64.5518 39.846 65.1992 39.6585C65.4049 39.604 65.5986 39.5435 65.7922 39.4709C67.087 38.999 67.9159 38.3395 68.2728 37.4743L70.3723 32.9546C70.5054 32.646 70.5659 32.3435 70.5659 32.041C70.5659 31.5025 70.3602 30.9761 69.9367 30.4618ZM44.6883 34.9755C44.2164 35.2477 43.7323 35.4897 43.224 35.7076C42.8671 35.8588 42.4981 35.998 42.1169 36.119C40.3562 36.7059 38.3777 37.0023 36.1875 36.9963C33.973 36.9902 31.9703 36.6877 30.1854 36.0766C29.8043 35.9556 29.4352 35.8165 29.0782 35.6591C28.5942 35.4413 28.1223 35.2054 27.6685 34.9452C25.2725 33.5597 24.0806 31.92 24.0866 30.0081C24.0987 28.1082 25.2725 26.4746 27.614 25.1193C29.9555 23.7701 32.7811 23.0864 36.0846 23.0864C36.2903 23.0864 36.496 23.0864 36.7017 23.0985C37.089 23.1045 37.4762 23.1227 37.8513 23.1529C40.4107 23.3526 42.6735 24.0242 44.6277 25.1496C45.3901 25.5913 46.0254 26.0511 46.5337 26.5472C46.7333 26.7408 46.9208 26.9405 47.0842 27.1402C47.8103 28.0296 48.1794 29.0097 48.1854 30.0686C48.1975 31.9865 47.0298 33.6262 44.6883 34.9755Z" stroke="white" stroke-width="1.21008" stroke-linecap="round" stroke-linejoin="round"/>
<path d="M48.1867 30.0681C48.1988 31.9861 47.0311 33.6258 44.6896 34.975C44.2177 35.2473 43.7336 35.4893 43.2253 35.7071C42.8684 35.8584 42.4993 35.9975 42.1182 36.1185C40.8052 35.6587 39.3834 35.3743 37.8526 35.2533C37.2778 35.2049 36.6849 35.1868 36.0859 35.1868C33.9138 35.1868 31.9474 35.4832 30.1867 36.0762C29.8056 35.9552 29.4365 35.816 29.0795 35.6587C28.5955 35.4409 28.1235 35.2049 27.6698 34.9448C25.2738 33.5592 24.0819 31.9196 24.0879 30.0076C24.1 28.1078 25.2738 26.4742 27.6153 25.1189C29.9568 23.7696 32.7824 23.0859 36.0859 23.0859C36.2916 23.0859 36.4973 23.0859 36.703 23.098C37.0903 23.1041 37.4775 23.1222 37.8526 23.1525C40.4119 23.3522 42.6747 24.0238 44.629 25.1491C45.3914 25.5908 46.0267 26.0506 46.535 26.5468C46.7346 26.7404 46.9221 26.9401 47.0855 27.1397C47.8116 28.0291 48.1807 29.0093 48.1867 30.0681Z" stroke="white" stroke-width="1.21008" stroke-linecap="round" stroke-linejoin="round"/>
<path d="M55.8953 39.5625V51.6633C55.6533 51.8449 55.3992 52.0143 55.133 52.1655L53.4993 53.1094C53.4691 53.1275 53.4388 53.1457 53.4025 53.1578V45.2196C53.4146 45.0381 53.3965 44.8566 53.3662 44.6751L52.5615 41.4139C52.9185 41.2929 53.2331 41.1598 53.4993 41.0086L55.133 40.0647C55.3992 39.9134 55.6533 39.744 55.8953 39.5625Z" stroke="white" stroke-width="1.21008" stroke-linecap="round" stroke-linejoin="round"/>
<path d="M70.5649 32.0391V44.1399C70.5649 44.4424 70.5044 44.745 70.3713 45.0536L68.2718 49.5732C67.9148 50.4384 67.0859 51.0979 65.7911 51.5698C65.5975 51.6424 65.4039 51.7029 65.1982 51.7574C64.0728 52.0841 62.8506 52.1991 61.5437 52.1205L55.8926 51.6606V39.5597L61.5437 40.0196C62.1004 40.0559 62.6389 40.0498 63.1592 40.0135C63.8671 39.9651 64.5508 39.8441 65.1982 39.6565C65.4039 39.6021 65.5975 39.5416 65.7911 39.469C67.0859 38.997 67.9148 38.3375 68.2718 37.4723L70.3713 32.9527C70.5044 32.6441 70.5649 32.3416 70.5649 32.0391Z" stroke="white" stroke-width="1.21008" stroke-linecap="round" stroke-linejoin="round"/>
<path d="M53.4011 45.2178V57.3186C53.383 58.0023 53.0442 58.6436 52.4089 59.2245C51.6042 59.9747 50.4486 60.4527 48.9481 60.6645L41.0523 61.8383C39.5578 62.05 38.1239 61.9653 36.7444 61.5841C35.6613 61.2937 34.8324 60.852 34.2516 60.2772C34.0822 60.1139 33.937 59.9445 33.816 59.7569L31.7285 56.7317V44.6309L33.816 47.6561C33.937 47.8436 34.0822 48.013 34.2516 48.1764C34.6086 48.5273 35.0563 48.8299 35.6008 49.084C35.9457 49.2352 36.3269 49.3683 36.7444 49.4833C38.1239 49.8645 39.5578 49.9492 41.0523 49.7374L48.9481 48.5636C50.4486 48.3519 51.6042 47.8739 52.4089 47.1236C53.0442 46.5428 53.383 45.9014 53.4011 45.2178Z" stroke="white" stroke-width="1.21008" stroke-linecap="round" stroke-linejoin="round"/>
<path d="M31.7298 44.6298V56.7306C30.9675 56.6641 30.193 56.5673 29.4246 56.4523C28.6502 56.3313 27.9241 56.1921 27.2344 56.0227V43.9219C27.9241 44.0913 28.6502 44.2304 29.4246 44.3515C30.193 44.4664 30.9675 44.5632 31.7298 44.6298Z" stroke="white" stroke-width="1.21008" stroke-linecap="round" stroke-linejoin="round"/>
<path d="M27.2316 43.927V56.0278L25.5859 56.7478L22.6877 58.0184C21.4716 58.5327 20.1042 58.7686 18.5855 58.7323C17.0669 58.696 15.76 58.3572 14.6588 57.728L8.92904 54.4184C7.83392 53.7831 7.25308 53.0328 7.18652 52.1555V40.0547C7.25308 40.932 7.83392 41.6823 8.92904 42.3175L14.6588 45.6271C15.76 46.2564 17.0669 46.5952 18.5855 46.6315C20.1042 46.6678 21.4716 46.4318 22.6877 45.9175L25.0534 44.8829L25.5859 44.647L27.2316 43.927Z" stroke="white" stroke-width="1.21008" stroke-linecap="round" stroke-linejoin="round"/>
<path d="M19.4388 18.5101C19.1302 18.6432 18.8459 18.7824 18.5918 18.9276V14.7891C18.5918 14.9343 18.6039 15.0916 18.6341 15.2429L19.4388 18.5101Z" stroke="white" stroke-width="1.21008" stroke-linecap="round" stroke-linejoin="round"/>
<path d="M18.5918 14.7921V14.6953" stroke="white" stroke-width="1.21008" stroke-linecap="round" stroke-linejoin="round"/>
<path d="M64.8676 20.1973V28.323L61.4189 27.5001C61.2918 27.0584 61.1345 26.6168 60.953 26.1811C60.7715 25.7516 60.5113 25.322 60.1846 24.9045L63.6333 22.2726C64.432 21.6554 64.8434 20.9657 64.8676 20.1973Z" stroke="white" stroke-width="1.21008" stroke-linecap="round" stroke-linejoin="round"/>
<path d="M11.8708 35.0536L8.42209 37.6855C7.53268 38.3813 7.12119 39.1678 7.18774 40.0512V43.7359L6.86108 43.6573L5.28796 43.2882C3.82981 42.9554 2.77099 42.3927 2.11755 41.6001C1.69402 41.0798 1.48828 40.5534 1.48828 40.0149V27.9141C1.48828 28.4525 1.69402 28.9789 2.11755 29.4993C2.77099 30.2919 3.82981 30.8546 5.28796 31.1873L6.86108 31.5564L8.89402 32.0405L10.6426 32.4579C10.7636 32.9057 10.9209 33.3413 11.1024 33.7769C11.29 34.2065 11.5441 34.6361 11.8708 35.0536Z" stroke="white" stroke-width="1.21008" stroke-linecap="round" stroke-linejoin="round"/>
</svg>
