<svg width="72" height="72" viewBox="0 0 72 72" fill="none" xmlns="http://www.w3.org/2000/svg">
<path d="M32.8368 31.438L21.1821 38.167L12.2999 43.2945C17.8312 44.9902 23.9275 45.542 30.596 44.97C31.2688 44.9094 31.9417 44.8422 32.6012 44.7614C32.6819 44.7547 32.756 44.7479 32.8368 44.7345C32.9579 44.721 33.079 44.7076 33.1934 44.6874C38.8188 43.9741 43.8857 42.5543 48.4008 40.4279L44.4914 38.167L32.8368 31.438ZM32.8368 31.438L28.7994 29.1098L23.5642 26.0885L17.2726 22.4549C17.6629 22.1251 18.006 21.8762 18.3088 21.7012L31.7668 13.936L53.313 19.622L42.8024 25.6848L37.3115 28.8541L32.8368 31.438ZM69.7989 30.3412L59.9545 17.8994C59.5575 17.4216 59.0529 17.0044 58.4473 16.6545C57.835 16.3046 57.1148 16.0152 56.2871 15.7865L34.7411 10.1005C33.3482 9.74386 31.9014 9.63619 30.4075 9.77077C28.907 9.90535 27.615 10.2889 26.5317 10.9147L14.2513 18.007C8.18175 21.5061 4.25875 25.7857 2.4823 30.8392C1.78922 32.8175 1.53358 34.7487 1.70853 36.6463C1.88348 38.4765 2.46881 40.2732 3.45797 42.0294C4.06358 43.1061 4.81729 44.1625 5.72571 45.2055C5.90066 45.4074 6.09572 45.5958 6.31778 45.7708C6.53311 45.9457 6.79565 46.1207 7.09845 46.2956C7.40798 46.4773 7.71072 46.6253 8.01352 46.7532C8.32305 46.881 8.64618 46.9887 8.99609 47.0896C14.1236 48.5767 19.4529 49.3573 24.9774 49.4313C27.891 49.4717 30.8584 49.3169 33.8798 48.9603C35.5149 48.7719 37.1096 48.5364 38.6505 48.2537H38.6573C45.3593 47.0425 51.18 45.0171 56.1056 42.1708L64.6244 37.2586L68.3926 35.0784C69.4759 34.4526 70.1287 33.7057 70.3642 32.8444C70.4315 32.6022 70.4651 32.3666 70.4651 32.1311C70.4651 31.5121 70.243 30.9199 69.7989 30.3412Z" stroke="white" stroke-width="1.34579" stroke-linecap="round" stroke-linejoin="round"/>
<path d="M31.7677 13.9336V27.3915L28.8002 29.1074L23.5651 26.0861L17.2734 22.4525C17.6637 22.1227 18.007 21.8738 18.3098 21.6988L31.7677 13.9336Z" stroke="white" stroke-width="1.34579" stroke-linecap="round" stroke-linejoin="round"/>
<path d="M53.3128 19.6196L42.8022 25.6824L37.3113 28.8517L31.7666 27.3915V13.9336L53.3128 19.6196Z" stroke="white" stroke-width="1.34579" stroke-linecap="round" stroke-linejoin="round"/>
<path d="M70.4645 32.1328V45.6244C70.4645 45.8465 70.4308 46.0752 70.3635 46.304C70.128 47.1653 69.4753 47.9123 68.3919 48.538L56.1048 55.6304C50.042 59.1362 42.6267 61.3971 33.879 62.4199C25.1246 63.4494 16.8278 62.8237 8.9953 60.5493C8.64539 60.4483 8.32226 60.3407 8.01273 60.2128C7.70993 60.085 7.40726 59.9369 7.09773 59.7552C6.79492 59.5803 6.53236 59.4053 6.31703 59.2304C6.09498 59.0554 5.89992 58.867 5.72496 58.6651C2.70365 55.1997 1.3646 51.5728 1.70778 47.7911V36.648C1.88273 38.4782 2.46806 40.2749 3.45722 42.0311C4.06283 43.1078 4.81655 44.1642 5.72496 45.2072C5.89992 45.4091 6.09498 45.5975 6.31703 45.7724C6.53236 45.9474 6.79492 46.1223 7.09773 46.2973C7.40726 46.479 7.70993 46.627 8.01273 46.7549C8.32226 46.8827 8.64539 46.9904 8.9953 47.0913C14.1228 48.5784 19.4521 49.359 24.9766 49.433C27.8902 49.4734 30.8577 49.3186 33.879 48.962C35.5142 48.7736 37.1088 48.538 38.6497 48.2554H38.6565C45.3586 47.0442 51.1792 45.0188 56.1048 42.1724L64.6236 37.2603L68.3919 35.0801C69.4753 34.4543 70.128 33.7074 70.3635 32.8461C70.4308 32.6038 70.4645 32.3683 70.4645 32.1328Z" stroke="white" stroke-width="1.34579" stroke-linecap="round" stroke-linejoin="round"/>
<path d="M70.4648 32.1283V31.8457" stroke="white" stroke-width="1.34579" stroke-linecap="round" stroke-linejoin="round"/>
<path d="M48.4 40.4255C43.8848 42.5518 38.8181 43.9716 33.1926 44.6849C33.0782 44.7051 32.9571 44.7185 32.8359 44.732V31.4355L44.4906 38.1645L48.4 40.4255Z" stroke="white" stroke-width="1.34579" stroke-linecap="round" stroke-linejoin="round"/>
<path d="M32.8386 31.4355V44.732C32.7578 44.7455 32.6838 44.7522 32.6031 44.7589C31.9436 44.8397 31.2707 44.9069 30.5978 44.9675C23.9294 45.5395 17.833 44.9877 12.3018 43.292L21.184 38.1645L32.8386 31.4355Z" stroke="white" stroke-width="1.34579" stroke-linecap="round" stroke-linejoin="round"/>
</svg>
